<?xml version="1.0" standalone="no"?>
<!DOCTYPE svg PUBLIC "-//W3C//DTD SVG 20010904//EN"
 "http://www.w3.org/TR/2001/REC-SVG-20010904/DTD/svg10.dtd">
<svg version="1.0" xmlns="http://www.w3.org/2000/svg"
 width="500.000000pt" height="500.000000pt" viewBox="0 0 500.000000 500.000000"
 preserveAspectRatio="xMidYMid meet">
<metadata>
iMegaTeleport, http://teleport.imega.ru, info@imega.ru
</metadata>
<g transform="translate(0.000000,500.000000) scale(0.100000,-0.100000)"
fill="#414141" stroke="none">
<path d="M1930 4600 c-345 -36 -688 -192 -897 -408 -76 -77 -165 -208 -198
-291 -57 -140 -69 -206 -69 -366 1 -174 20 -264 100 -463 237 -594 604 -969
1056 -1079 113 -28 383 -25 501 5 420 105 818 418 1173 923 217 309 426 722
595 1171 33 86 59 160 59 165 0 5 -33 20 -72 32 -40 13 -78 26 -84 28 -7 3
-19 -18 -29 -49 -33 -101 -148 -383 -221 -542 -408 -886 -958 -1457 -1504
-1560 -479 -91 -919 185 -1210 758 -223 440 -245 725 -79 1002 229 380 876
600 1334 454 179 -58 296 -161 346 -309 48 -137 46 -450 -3 -686 -71 -347
-243 -637 -465 -785 -323 -216 -664 -57 -903 420 -121 242 -173 481 -117 537
49 49 216 -11 354 -127 124 -103 239 -259 231 -313 -7 -50 -151 -42 -225 12
l-38 28 -70 -24 c-38 -13 -76 -25 -83 -28 -37 -14 67 -122 154 -161 219 -97
444 -12 444 168 0 104 -62 217 -195 357 -170 178 -352 281 -505 284 -86 3
-147 -22 -199 -78 -118 -128 -86 -386 90 -740 166 -332 385 -536 637 -596 71
-17 217 -15 292 5 370 96 678 503 779 1028 48 250 48 576 0 735 -76 251 -286
418 -598 477 -101 19 -276 27 -381 16z"/>
<path d="M1392 1493 l3 -568 22 -31 c33 -46 86 -68 168 -68 l70 -1 0 60 0 60
-47 5 c-27 3 -54 12 -60 18 -10 10 -14 138 -18 550 l-5 537 -68 3 -67 3 2
-568z"/>
<path d="M310 1776 l0 -105 -52 -3 -53 -3 0 -60 0 -60 50 -1 50 -1 5 -299 c4
-252 8 -304 21 -329 37 -67 96 -94 207 -95 l73 0 -3 63 -3 62 -56 3 c-96 5
-94 -3 -94 319 l0 276 60 1 60 1 3 63 3 62 -66 0 -65 0 0 105 0 105 -70 0 -70
0 0 -104z"/>
<path d="M4514 1867 c-3 -8 -4 -216 -2 -463 3 -442 3 -450 25 -490 33 -61 103
-94 200 -94 l73 0 0 65 0 65 -60 0 c-96 0 -95 -2 -95 324 l0 270 63 -3 62 -2
0 65 0 66 -65 0 -65 0 0 105 0 105 -65 0 c-46 0 -67 -4 -71 -13z"/>
<path d="M881 1670 c-105 -22 -197 -105 -243 -220 -20 -48 -22 -74 -23 -205 0
-165 13 -225 63 -300 96 -139 307 -176 491 -84 89 44 90 49 40 109 -40 48 -43
49 -63 35 -156 -115 -336 -69 -381 98 -10 36 -15 73 -12 81 6 14 41 16 278 16
l272 0 -6 103 c-7 133 -33 203 -99 273 -28 29 -70 61 -97 73 -56 24 -158 34
-220 21z m137 -136 c42 -8 101 -72 117 -127 8 -28 15 -61 15 -74 l0 -23 -197
2 -198 3 3 35 c4 55 52 141 90 163 54 32 94 37 170 21z"/>
<path d="M1932 1670 c-97 -21 -179 -85 -226 -178 -38 -76 -49 -144 -44 -287 3
-103 9 -142 27 -186 26 -67 89 -142 140 -168 90 -46 237 -51 341 -12 52 20
130 68 130 80 -1 3 -21 28 -45 54 l-45 48 -32 -24 c-51 -39 -130 -61 -191 -54
-100 12 -177 99 -180 203 l-2 49 273 3 272 2 0 63 c0 245 -118 397 -320 412
-30 2 -74 0 -98 -5z m145 -142 c45 -13 90 -68 109 -134 25 -88 32 -85 -188
-82 l-193 3 3 40 c7 89 68 165 148 184 40 9 64 7 121 -11z"/>
<path d="M2773 1669 c-52 -7 -127 -43 -153 -73 -21 -27 -30 -18 -30 29 l0 46
-67 -3 -68 -3 -3 -592 -2 -593 70 0 70 0 0 205 c0 113 4 205 9 205 5 0 14 -7
22 -16 45 -55 182 -79 284 -49 46 13 70 28 116 74 49 49 61 69 81 132 20 63
23 95 23 219 0 122 -4 156 -22 216 -49 155 -163 225 -330 203z m121 -159 c60
-36 80 -95 84 -240 4 -136 -5 -187 -40 -240 -36 -52 -69 -71 -134 -77 -148
-12 -219 98 -209 322 6 131 45 212 119 247 51 24 131 19 180 -12z"/>
<path d="M4323 1669 c-58 -7 -110 -35 -147 -80 l-25 -29 -3 52 -3 53 -67 3
-68 3 0 -426 0 -425 70 0 70 0 0 288 c0 260 2 291 19 329 43 93 157 126 274
78 15 -6 17 1 17 73 l0 80 -43 3 c-23 2 -66 1 -94 -2z"/>
<path d="M3440 1653 c-98 -34 -170 -109 -207 -217 -14 -40 -18 -82 -18 -201 0
-211 26 -288 123 -362 59 -45 111 -58 222 -58 81 1 103 4 150 26 116 54 171
132 189 272 49 363 -67 558 -332 557 -48 -1 -101 -8 -127 -17z m182 -113 c52
-15 97 -55 121 -109 17 -39 20 -67 21 -181 0 -145 -7 -178 -52 -239 -46 -62
-158 -90 -235 -58 -51 22 -102 86 -117 147 -19 78 -9 263 17 320 46 101 143
148 245 120z"/>
</g>
</svg>
